<?xml version="1.0" encoding="iso-8859-1"?>
<!-- Generator: Adobe Illustrator 16.0.0, SVG Export Plug-In . SVG Version: 6.00 Build 0)  -->
<!DOCTYPE svg PUBLIC "-//W3C//DTD SVG 1.1//EN" "http://www.w3.org/Graphics/SVG/1.1/DTD/svg11.dtd">
<svg version="1.1" id="Capa_1" xmlns="http://www.w3.org/2000/svg" xmlns:xlink="http://www.w3.org/1999/xlink" x="0px" y="0px"
	 width="39.678px" height="39.678px" viewBox="0 0 39.678 39.678" style="enable-background:new 0 0 39.678 39.678;"
	 xml:space="preserve">
<g>
	<path d="M5.257,20.437c0.039,0.092,0.046,0.193,0.026,0.312c-0.026,0.138-0.086,0.246-0.181,0.33
		c-0.096,0.081-0.2,0.13-0.315,0.141c-0.116,0.011-0.257,0-0.423-0.03l-0.287-0.056c-0.095-0.019-0.152-0.033-0.173-0.048
		c-0.02-0.014-0.031-0.034-0.036-0.062c-0.002-0.021,0.006-0.095,0.026-0.214l0.159-0.85l0.509,0.094
		c0.223,0.043,0.385,0.095,0.485,0.155C5.148,20.269,5.217,20.347,5.257,20.437z M5.284,18.65c-0.09-0.05-0.262-0.098-0.514-0.145
		l-0.43-0.081l-0.18,0.957l0.431,0.081c0.225,0.041,0.395,0.054,0.51,0.036c0.115-0.019,0.205-0.06,0.275-0.125
		c0.067-0.063,0.112-0.148,0.13-0.248c0.02-0.104,0.01-0.195-0.028-0.279C5.442,18.765,5.378,18.698,5.284,18.65z M9.098,19.839
		c0,2.514-2.037,4.549-4.55,4.549C2.036,24.388,0,22.353,0,19.839c0-2.514,2.036-4.549,4.548-4.549
		C7.061,15.29,9.098,17.325,9.098,19.839z M6.421,18.637c-0.077-0.168-0.207-0.31-0.386-0.427c-0.068-0.046-0.155-0.086-0.25-0.123
		l0.129-0.691L5.25,17.271l-0.122,0.646l-0.427-0.08l0.122-0.646l-0.665-0.125l-0.122,0.647l-1.015-0.19L2.92,18.066l0.155,0.029
		c0.104,0.018,0.172,0.041,0.204,0.067c0.034,0.024,0.054,0.055,0.063,0.09c0.009,0.035,0.003,0.11-0.019,0.228l-0.41,2.188
		c-0.021,0.114-0.041,0.187-0.063,0.216c-0.022,0.029-0.052,0.051-0.092,0.062c-0.04,0.011-0.111,0.007-0.214-0.015l-0.156-0.026
		l-0.101,0.541l1.014,0.188l-0.12,0.646l0.665,0.125l0.12-0.646l0.378,0.07c0.017,0.004,0.032,0.005,0.049,0.009l-0.12,0.646
		l0.664,0.123l0.132-0.699c0.115-0.002,0.218-0.012,0.309-0.027c0.247-0.049,0.449-0.15,0.608-0.303
		c0.158-0.15,0.257-0.33,0.295-0.539c0.033-0.176,0.021-0.342-0.035-0.496c-0.057-0.158-0.148-0.289-0.274-0.395
		c-0.086-0.074-0.218-0.152-0.392-0.232c0.182-0.027,0.333-0.074,0.454-0.145c0.122-0.07,0.221-0.158,0.297-0.265
		c0.077-0.106,0.129-0.225,0.152-0.354C6.519,18.982,6.498,18.806,6.421,18.637z M14.826,20.86c0,1.645-1.076,3.525-3.352,3.525
		c-1.2,0-1.8-0.52-1.8-1.417c0-0.312,0.051-0.621,0.113-0.92l1.025-5.122h1.499l-0.599,2.889h0.021
		c0.372-0.445,0.941-0.717,1.562-0.717C14.351,19.101,14.826,19.96,14.826,20.86z M13.263,21.17c0-0.485-0.207-0.869-0.661-0.869
		c-0.539,0-1.065,0.549-1.242,1.429l-0.093,0.414c-0.021,0.166-0.062,0.342-0.052,0.56c0.01,0.36,0.227,0.558,0.569,0.558
		C12.644,23.259,13.263,22.06,13.263,21.17z M15.233,24.274h1.49l0.962-5.06h-1.49L15.233,24.274z M17.261,17.013
		c-0.456,0-0.85,0.342-0.859,0.848c0,0.444,0.31,0.725,0.723,0.725c0.477,0,0.879-0.311,0.879-0.838
		C18.005,17.301,17.694,17.013,17.261,17.013z M20.841,17.798l-1.521,0.354l-0.207,1.063h-0.652l-0.207,1.128h0.642l-0.394,2.018
		c-0.072,0.384-0.103,0.662-0.103,0.941c0,0.631,0.425,1.086,1.314,1.086c0.32,0,0.691-0.042,0.879-0.113l0.178-1.17
		c-0.136,0.021-0.279,0.021-0.414,0.021c-0.322,0-0.426-0.178-0.426-0.426c0-0.176,0.041-0.436,0.083-0.642l0.343-1.718h1.074
		l0.219-1.128h-1.076L20.841,17.798z M21.693,22.31c0,1.312,0.879,2.067,2.129,2.067c0.602,0,1.119-0.104,1.438-0.259l-0.01-1.139
		c-0.26,0.104-0.569,0.207-1.003,0.207c-0.56,0-0.993-0.353-0.993-1.046c0-0.95,0.65-1.852,1.717-1.852
		c0.301,0,0.508,0.052,0.684,0.124l0.361-1.138c-0.217-0.094-0.59-0.178-1.023-0.178C23.068,19.101,21.693,20.509,21.693,22.31z
		 M31.262,21.181c0,1.852-1.261,3.207-3.021,3.207c-1.281,0-2.142-0.838-2.142-2.091c0-1.758,1.22-3.196,3.021-3.196
		C30.477,19.101,31.262,20.032,31.262,21.181z M29.721,21.19c0-0.465-0.195-0.961-0.796-0.961c-0.858,0-1.292,1.252-1.28,2.037
		c0,0.59,0.289,0.983,0.807,0.983C29.268,23.25,29.721,22.06,29.721,21.19z M33.736,17.013c-0.455,0-0.849,0.342-0.857,0.848
		c0,0.444,0.312,0.725,0.725,0.725c0.478,0,0.879-0.311,0.879-0.838C34.484,17.301,34.172,17.013,33.736,17.013z M31.711,24.274
		h1.488l0.964-5.06h-1.49L31.711,24.274z M38.384,19.101c-0.673,0-1.303,0.29-1.778,0.952h-0.021l0.104-0.838h-1.322
		c-0.063,0.446-0.146,1.004-0.271,1.646l-0.643,3.414h1.49l0.424-2.246c0.207-1.114,0.777-1.728,1.264-1.728
		c0.373,0,0.497,0.249,0.497,0.601c0,0.188-0.021,0.395-0.054,0.569l-0.526,2.804h1.489l0.56-2.938
		c0.041-0.248,0.083-0.63,0.083-0.855C39.678,19.608,39.212,19.101,38.384,19.101z"/>
</g>
<g>
</g>
<g>
</g>
<g>
</g>
<g>
</g>
<g>
</g>
<g>
</g>
<g>
</g>
<g>
</g>
<g>
</g>
<g>
</g>
<g>
</g>
<g>
</g>
<g>
</g>
<g>
</g>
<g>
</g>
</svg>
